<svg width="89" height="11" viewBox="0 0 89 11" fill="none" xmlns="http://www.w3.org/2000/svg">
<path d="M0.758523 10V1.27273H2.60369V5.12074H2.71875L5.85938 1.27273H8.07102L4.83239 5.1804L8.10938 10H5.90199L3.51136 6.41193L2.60369 7.51989V10H0.758523ZM10.8643 10.1236C10.4467 10.1236 10.0746 10.0511 9.74787 9.90625C9.42116 9.75852 9.16264 9.54119 8.9723 9.25426C8.7848 8.96449 8.69105 8.60369 8.69105 8.17188C8.69105 7.80824 8.75781 7.50284 8.89134 7.25568C9.02486 7.00852 9.20668 6.80966 9.43679 6.65909C9.6669 6.50852 9.92827 6.39489 10.2209 6.31818C10.5163 6.24148 10.826 6.1875 11.1499 6.15625C11.5305 6.11648 11.8374 6.07955 12.0703 6.04545C12.3033 6.00852 12.4723 5.95455 12.5774 5.88352C12.6825 5.8125 12.7351 5.70739 12.7351 5.56818V5.54261C12.7351 5.27273 12.6499 5.06392 12.4794 4.91619C12.3118 4.76847 12.0732 4.6946 11.7635 4.6946C11.4368 4.6946 11.1768 4.76705 10.9837 4.91193C10.7905 5.05398 10.6626 5.23295 10.6001 5.44886L8.92116 5.3125C9.00639 4.91477 9.17401 4.57102 9.42401 4.28125C9.67401 3.98864 9.99645 3.7642 10.3913 3.60795C10.7891 3.44886 11.2493 3.36932 11.772 3.36932C12.1357 3.36932 12.4837 3.41193 12.8161 3.49716C13.1513 3.58239 13.4482 3.71449 13.7067 3.89347C13.968 4.07244 14.174 4.30256 14.3246 4.58381C14.4751 4.86222 14.5504 5.19602 14.5504 5.58523V10H12.8288V9.09233H12.7777C12.6726 9.29688 12.532 9.47727 12.3558 9.63352C12.1797 9.78693 11.968 9.90767 11.7209 9.99574C11.4737 10.081 11.1882 10.1236 10.8643 10.1236ZM11.3842 8.87074C11.6513 8.87074 11.8871 8.81818 12.0916 8.71307C12.2962 8.60511 12.4567 8.46023 12.5732 8.27841C12.6896 8.09659 12.7479 7.89062 12.7479 7.66051V6.96591C12.6911 7.00284 12.6129 7.03693 12.5135 7.06818C12.4169 7.09659 12.3075 7.12358 12.1854 7.14915C12.0632 7.17187 11.9411 7.19318 11.8189 7.21307C11.6967 7.23011 11.5859 7.24574 11.4865 7.25994C11.2734 7.29119 11.0874 7.34091 10.9283 7.40909C10.7692 7.47727 10.6456 7.5696 10.5575 7.68608C10.4695 7.79972 10.4254 7.94176 10.4254 8.11222C10.4254 8.35938 10.5149 8.5483 10.6939 8.67898C10.8757 8.80682 11.1058 8.87074 11.3842 8.87074ZM19.4403 3.45455V4.81818H15.4986V3.45455H19.4403ZM16.3935 1.88636H18.2088V7.98864C18.2088 8.15625 18.2344 8.28693 18.2855 8.38068C18.3366 8.47159 18.4077 8.53551 18.4986 8.57244C18.5923 8.60937 18.7003 8.62784 18.8224 8.62784C18.9077 8.62784 18.9929 8.62074 19.0781 8.60653C19.1634 8.58949 19.2287 8.5767 19.2741 8.56818L19.5597 9.91903C19.4688 9.94744 19.3409 9.98011 19.1761 10.017C19.0114 10.0568 18.8111 10.081 18.5753 10.0895C18.1378 10.1065 17.7543 10.0483 17.4247 9.91477C17.098 9.78125 16.8438 9.57386 16.6619 9.29261C16.4801 9.01136 16.3906 8.65625 16.3935 8.22727V1.88636ZM25.9869 5.32102L24.3249 5.4233C24.2965 5.28125 24.2354 5.15341 24.1417 5.03977C24.0479 4.9233 23.9244 4.83097 23.771 4.76278C23.6204 4.69176 23.44 4.65625 23.2298 4.65625C22.9485 4.65625 22.7113 4.71591 22.5181 4.83523C22.3249 4.9517 22.2283 5.10795 22.2283 5.30398C22.2283 5.46023 22.2908 5.59233 22.4158 5.70028C22.5408 5.80824 22.7553 5.89489 23.0593 5.96023L24.244 6.19886C24.8803 6.32955 25.3548 6.53977 25.6673 6.82955C25.9798 7.11932 26.136 7.5 26.136 7.97159C26.136 8.40057 26.0096 8.77699 25.7567 9.10085C25.5067 9.42472 25.163 9.67756 24.7255 9.85938C24.2908 10.0384 23.7894 10.1278 23.2212 10.1278C22.3548 10.1278 21.6644 9.94744 21.1502 9.58665C20.6388 9.22301 20.3391 8.72869 20.2511 8.10369L22.0366 8.00994C22.0906 8.27415 22.2212 8.47585 22.4286 8.61506C22.636 8.75142 22.9016 8.8196 23.2255 8.8196C23.5437 8.8196 23.7994 8.75852 23.9925 8.63636C24.1886 8.51136 24.288 8.35085 24.2908 8.15483C24.288 7.99006 24.2184 7.85511 24.082 7.75C23.9457 7.64205 23.7354 7.55966 23.4513 7.50284L22.3178 7.27699C21.6786 7.14915 21.2028 6.92756 20.8903 6.61222C20.5806 6.29687 20.4258 5.89489 20.4258 5.40625C20.4258 4.9858 20.5394 4.62358 20.7667 4.3196C20.9968 4.01562 21.3192 3.78125 21.734 3.61648C22.1516 3.4517 22.6403 3.36932 23.1999 3.36932C24.0266 3.36932 24.6772 3.54403 25.1516 3.89347C25.6289 4.2429 25.9073 4.71875 25.9869 5.32102ZM27.2791 10V3.45455H29.0092V4.60938H29.0859C29.2223 4.22585 29.4496 3.9233 29.7678 3.7017C30.0859 3.48011 30.4666 3.36932 30.9098 3.36932C31.3587 3.36932 31.7408 3.48153 32.0561 3.70597C32.3714 3.92756 32.5817 4.22869 32.6868 4.60938H32.755C32.8885 4.23438 33.13 3.93466 33.4794 3.71023C33.8317 3.48295 34.2479 3.36932 34.728 3.36932C35.3388 3.36932 35.8345 3.56392 36.2152 3.95312C36.5987 4.33949 36.7905 4.88778 36.7905 5.59801V10H34.9794V5.95597C34.9794 5.59233 34.8828 5.3196 34.6896 5.13778C34.4964 4.95597 34.255 4.86506 33.9652 4.86506C33.6357 4.86506 33.3786 4.97017 33.1939 5.1804C33.0092 5.38778 32.9169 5.66193 32.9169 6.00284V10H31.157V5.91761C31.157 5.59659 31.0646 5.34091 30.88 5.15057C30.6982 4.96023 30.4581 4.86506 30.1598 4.86506C29.9581 4.86506 29.7763 4.91619 29.6143 5.01847C29.4553 5.1179 29.3288 5.25852 29.2351 5.44034C29.1413 5.61932 29.0945 5.82955 29.0945 6.07102V10H27.2791ZM41.1818 10.1278C40.5199 10.1278 39.9474 9.98722 39.4645 9.70597C38.9844 9.42187 38.6136 9.02699 38.3523 8.52131C38.0909 8.01278 37.9602 7.4233 37.9602 6.75284C37.9602 6.0767 38.0909 5.4858 38.3523 4.98011C38.6136 4.47159 38.9844 4.0767 39.4645 3.79545C39.9474 3.51136 40.5199 3.36932 41.1818 3.36932C41.8438 3.36932 42.4148 3.51136 42.8949 3.79545C43.3778 4.0767 43.75 4.47159 44.0114 4.98011C44.2727 5.4858 44.4034 6.0767 44.4034 6.75284C44.4034 7.4233 44.2727 8.01278 44.0114 8.52131C43.75 9.02699 43.3778 9.42187 42.8949 9.70597C42.4148 9.98722 41.8438 10.1278 41.1818 10.1278ZM41.1903 8.72159C41.4915 8.72159 41.7429 8.63636 41.9446 8.46591C42.1463 8.29261 42.2983 8.05682 42.4006 7.75852C42.5057 7.46023 42.5582 7.12074 42.5582 6.74006C42.5582 6.35938 42.5057 6.01989 42.4006 5.72159C42.2983 5.4233 42.1463 5.1875 41.9446 5.0142C41.7429 4.84091 41.4915 4.75426 41.1903 4.75426C40.8864 4.75426 40.6307 4.84091 40.4233 5.0142C40.2188 5.1875 40.0639 5.4233 39.9588 5.72159C39.8565 6.01989 39.8054 6.35938 39.8054 6.74006C39.8054 7.12074 39.8565 7.46023 39.9588 7.75852C40.0639 8.05682 40.2188 8.29261 40.4233 8.46591C40.6307 8.63636 40.8864 8.72159 41.1903 8.72159Z" fill="black"/>
<path d="M53.7912 4.92045L52.8878 5.17614C52.831 5.02557 52.7472 4.87926 52.6364 4.73722C52.5284 4.59233 52.3807 4.47301 52.1932 4.37926C52.0057 4.28551 51.7656 4.23864 51.473 4.23864C51.0724 4.23864 50.7386 4.33097 50.4716 4.51562C50.2074 4.69744 50.0753 4.92898 50.0753 5.21023C50.0753 5.46023 50.1662 5.65767 50.348 5.80256C50.5298 5.94744 50.8139 6.06818 51.2003 6.16477L52.1719 6.40341C52.7571 6.54545 53.1932 6.76278 53.4801 7.0554C53.767 7.34517 53.9105 7.71875 53.9105 8.17614C53.9105 8.55114 53.8026 8.88636 53.5866 9.18182C53.3736 9.47727 53.0753 9.71023 52.6918 9.88068C52.3082 10.0511 51.8622 10.1364 51.3537 10.1364C50.6861 10.1364 50.1335 9.99148 49.696 9.7017C49.2585 9.41193 48.9815 8.98864 48.8651 8.43182L49.8196 8.19318C49.9105 8.54545 50.0824 8.80966 50.3352 8.9858C50.5909 9.16193 50.9247 9.25 51.3366 9.25C51.8054 9.25 52.1776 9.15057 52.4531 8.9517C52.7315 8.75 52.8707 8.50852 52.8707 8.22727C52.8707 8 52.7912 7.80966 52.6321 7.65625C52.473 7.5 52.2287 7.38352 51.8991 7.30682L50.8082 7.05114C50.2088 6.90909 49.7685 6.68892 49.4872 6.39062C49.2088 6.08949 49.0696 5.71307 49.0696 5.26136C49.0696 4.89205 49.1733 4.56534 49.3807 4.28125C49.5909 3.99716 49.8764 3.77415 50.2372 3.61222C50.6009 3.45028 51.0128 3.36932 51.473 3.36932C52.1207 3.36932 52.6293 3.51136 52.9986 3.79545C53.3707 4.07955 53.6349 4.45455 53.7912 4.92045ZM57.3505 10.1534C56.9357 10.1534 56.5593 10.0753 56.2212 9.91903C55.8832 9.75994 55.6147 9.53125 55.4158 9.23295C55.217 8.93182 55.1175 8.56818 55.1175 8.14205C55.1175 7.76705 55.1914 7.46307 55.3391 7.23011C55.4869 6.99432 55.6843 6.80966 55.9315 6.67614C56.1786 6.54261 56.4513 6.44318 56.7496 6.37784C57.0508 6.30966 57.3533 6.25568 57.6573 6.21591C58.055 6.16477 58.3775 6.12642 58.6246 6.10085C58.8746 6.07244 59.0565 6.02557 59.1701 5.96023C59.2866 5.89489 59.3448 5.78125 59.3448 5.61932V5.58523C59.3448 5.16477 59.2298 4.83807 58.9996 4.60511C58.7724 4.37216 58.4272 4.25568 57.9641 4.25568C57.484 4.25568 57.1076 4.3608 56.8349 4.57102C56.5621 4.78125 56.3704 5.00568 56.2596 5.24432L55.305 4.90341C55.4755 4.50568 55.7028 4.19602 55.9869 3.97443C56.2738 3.75 56.5863 3.59375 56.9244 3.50568C57.2653 3.41477 57.6005 3.36932 57.93 3.36932C58.1403 3.36932 58.3817 3.39489 58.6545 3.44602C58.93 3.49432 59.1957 3.59517 59.4513 3.74858C59.7099 3.90199 59.9244 4.13352 60.0948 4.44318C60.2653 4.75284 60.3505 5.16761 60.3505 5.6875V10H59.3448V9.11364H59.2937C59.2255 9.25568 59.1119 9.40767 58.9528 9.5696C58.7937 9.73153 58.582 9.86932 58.3178 9.98295C58.0536 10.0966 57.7312 10.1534 57.3505 10.1534ZM57.5039 9.25C57.9016 9.25 58.2369 9.17188 58.5096 9.01562C58.7852 8.85938 58.9925 8.65767 59.1317 8.41051C59.2738 8.16335 59.3448 7.90341 59.3448 7.63068V6.71023C59.3022 6.76136 59.2085 6.80824 59.0636 6.85085C58.9215 6.89062 58.7567 6.92614 58.5692 6.95739C58.3846 6.9858 58.2042 7.01136 58.0281 7.03409C57.8548 7.05398 57.7141 7.07102 57.6062 7.08523C57.3448 7.11932 57.1005 7.17472 56.8732 7.25142C56.6488 7.32528 56.467 7.4375 56.3278 7.58807C56.1914 7.7358 56.1232 7.9375 56.1232 8.19318C56.1232 8.54261 56.2525 8.80682 56.511 8.9858C56.7724 9.16193 57.1033 9.25 57.5039 9.25ZM65.1009 3.45455V4.30682H61.5724V3.45455H65.1009ZM62.6293 10V2.55114C62.6293 2.17614 62.7173 1.86364 62.8935 1.61364C63.0696 1.36364 63.2983 1.17614 63.5795 1.05114C63.8608 0.926136 64.1577 0.863636 64.4702 0.863636C64.7173 0.863636 64.919 0.883522 65.0753 0.923295C65.2315 0.963068 65.348 1 65.4247 1.03409L65.1349 1.90341C65.0838 1.88636 65.0128 1.86506 64.9219 1.83949C64.8338 1.81392 64.7173 1.80114 64.5724 1.80114C64.2401 1.80114 64 1.88494 63.8523 2.05256C63.7074 2.22017 63.6349 2.46591 63.6349 2.78977V10H62.6293ZM68.2489 10.1534C67.8342 10.1534 67.4577 10.0753 67.1197 9.91903C66.7816 9.75994 66.5131 9.53125 66.3143 9.23295C66.1154 8.93182 66.016 8.56818 66.016 8.14205C66.016 7.76705 66.0898 7.46307 66.2376 7.23011C66.3853 6.99432 66.5827 6.80966 66.8299 6.67614C67.0771 6.54261 67.3498 6.44318 67.6481 6.37784C67.9492 6.30966 68.2518 6.25568 68.5558 6.21591C68.9535 6.16477 69.2759 6.12642 69.5231 6.10085C69.7731 6.07244 69.9549 6.02557 70.0685 5.96023C70.185 5.89489 70.2433 5.78125 70.2433 5.61932V5.58523C70.2433 5.16477 70.1282 4.83807 69.8981 4.60511C69.6708 4.37216 69.3256 4.25568 68.8626 4.25568C68.3825 4.25568 68.006 4.3608 67.7333 4.57102C67.4606 4.78125 67.2688 5.00568 67.158 5.24432L66.2035 4.90341C66.3739 4.50568 66.6012 4.19602 66.8853 3.97443C67.1722 3.75 67.4847 3.59375 67.8228 3.50568C68.1637 3.41477 68.4989 3.36932 68.8285 3.36932C69.0387 3.36932 69.2802 3.39489 69.5529 3.44602C69.8285 3.49432 70.0941 3.59517 70.3498 3.74858C70.6083 3.90199 70.8228 4.13352 70.9933 4.44318C71.1637 4.75284 71.2489 5.16761 71.2489 5.6875V10H70.2433V9.11364H70.1921C70.1239 9.25568 70.0103 9.40767 69.8512 9.5696C69.6921 9.73153 69.4805 9.86932 69.2163 9.98295C68.9521 10.0966 68.6296 10.1534 68.2489 10.1534ZM68.4023 9.25C68.8001 9.25 69.1353 9.17188 69.408 9.01562C69.6836 8.85938 69.891 8.65767 70.0302 8.41051C70.1722 8.16335 70.2433 7.90341 70.2433 7.63068V6.71023C70.2006 6.76136 70.1069 6.80824 69.962 6.85085C69.82 6.89062 69.6552 6.92614 69.4677 6.95739C69.283 6.9858 69.1026 7.01136 68.9265 7.03409C68.7532 7.05398 68.6126 7.07102 68.5046 7.08523C68.2433 7.11932 67.9989 7.17472 67.7717 7.25142C67.5472 7.32528 67.3654 7.4375 67.2262 7.58807C67.0898 7.7358 67.0217 7.9375 67.0217 8.19318C67.0217 8.54261 67.1509 8.80682 67.4094 8.9858C67.6708 9.16193 68.0018 9.25 68.4023 9.25ZM73.0845 10V3.45455H74.0561V4.44318H74.1243C74.2436 4.11932 74.4595 3.85653 74.772 3.65483C75.0845 3.45312 75.4368 3.35227 75.8288 3.35227C75.9027 3.35227 75.995 3.35369 76.1058 3.35653C76.2166 3.35937 76.3004 3.36364 76.3572 3.36932V4.39205C76.3232 4.38352 76.245 4.37074 76.1229 4.35369C76.0036 4.33381 75.8771 4.32386 75.7436 4.32386C75.4254 4.32386 75.1413 4.39062 74.8913 4.52415C74.6442 4.65483 74.4482 4.83665 74.3033 5.0696C74.1612 5.29972 74.0902 5.5625 74.0902 5.85795V10H73.0845ZM77.5494 10V3.45455H78.555V10H77.5494ZM78.0607 2.36364C77.8647 2.36364 77.6957 2.29688 77.5536 2.16335C77.4144 2.02983 77.3448 1.86932 77.3448 1.68182C77.3448 1.49432 77.4144 1.33381 77.5536 1.20028C77.6957 1.06676 77.8647 1 78.0607 1C78.2567 1 78.4244 1.06676 78.5636 1.20028C78.7056 1.33381 78.7766 1.49432 78.7766 1.68182C78.7766 1.86932 78.7056 2.02983 78.5636 2.16335C78.4244 2.29688 78.2567 2.36364 78.0607 2.36364ZM85.0334 4.92045L84.13 5.17614C84.0732 5.02557 83.9893 4.87926 83.8786 4.73722C83.7706 4.59233 83.6229 4.47301 83.4354 4.37926C83.2479 4.28551 83.0078 4.23864 82.7152 4.23864C82.3146 4.23864 81.9808 4.33097 81.7138 4.51562C81.4496 4.69744 81.3175 4.92898 81.3175 5.21023C81.3175 5.46023 81.4084 5.65767 81.5902 5.80256C81.772 5.94744 82.0561 6.06818 82.4425 6.16477L83.4141 6.40341C83.9993 6.54545 84.4354 6.76278 84.7223 7.0554C85.0092 7.34517 85.1527 7.71875 85.1527 8.17614C85.1527 8.55114 85.0447 8.88636 84.8288 9.18182C84.6158 9.47727 84.3175 9.71023 83.9339 9.88068C83.5504 10.0511 83.1044 10.1364 82.5959 10.1364C81.9283 10.1364 81.3757 9.99148 80.9382 9.7017C80.5007 9.41193 80.2237 8.98864 80.1072 8.43182L81.0618 8.19318C81.1527 8.54545 81.3246 8.80966 81.5774 8.9858C81.8331 9.16193 82.1669 9.25 82.5788 9.25C83.0476 9.25 83.4197 9.15057 83.6953 8.9517C83.9737 8.75 84.1129 8.50852 84.1129 8.22727C84.1129 8 84.0334 7.80966 83.8743 7.65625C83.7152 7.5 83.4709 7.38352 83.1413 7.30682L82.0504 7.05114C81.451 6.90909 81.0107 6.68892 80.7294 6.39062C80.451 6.08949 80.3118 5.71307 80.3118 5.26136C80.3118 4.89205 80.4155 4.56534 80.6229 4.28125C80.8331 3.99716 81.1186 3.77415 81.4794 3.61222C81.843 3.45028 82.255 3.36932 82.7152 3.36932C83.3629 3.36932 83.8714 3.51136 84.2408 3.79545C84.6129 4.07955 84.8771 4.45455 85.0334 4.92045ZM87.3995 10.0682C87.1893 10.0682 87.0089 9.9929 86.8583 9.84233C86.7077 9.69176 86.6325 9.51136 86.6325 9.30114C86.6325 9.09091 86.7077 8.91051 86.8583 8.75994C87.0089 8.60937 87.1893 8.53409 87.3995 8.53409C87.6097 8.53409 87.7901 8.60937 87.9407 8.75994C88.0913 8.91051 88.1665 9.09091 88.1665 9.30114C88.1665 9.44034 88.131 9.56818 88.06 9.68466C87.9918 9.80114 87.8995 9.89489 87.783 9.96591C87.6694 10.0341 87.5415 10.0682 87.3995 10.0682Z" fill="#30AF5B"/>
</svg>
